<?xml version="1.0" encoding="UTF-8"?><svg id="Ebene_2" xmlns="http://www.w3.org/2000/svg" xmlns:xlink="http://www.w3.org/1999/xlink" viewBox="0 0 255 246.07"><defs><style>.cls-1{letter-spacing:0em;}.cls-2{fill:#008026;}.cls-3{fill:#2142ab;}.cls-4{isolation:isolate;}.cls-5{clip-path:url(#clippath-1);}.cls-6{fill:#004dff;}.cls-7{letter-spacing:-.03em;}.cls-8{fill:#ff8c00;}.cls-9{fill:#e40303;}.cls-10{clip-path:url(#clippath);}.cls-11{fill:none;}.cls-12{fill:#1d1d1b;font-family:MavenPro-Regular, 'Maven Pro';font-size:30.82px;}.cls-13{fill:#750787;}.cls-14{fill:#ffed00;}</style><clipPath id="clippath"><path class="cls-11" d="M39.24,127S129.24,21.09,241.04,13.61C140.56,59.48,102.82,127,102.82,127H39.24Z"/></clipPath><clipPath id="clippath-1"><path class="cls-11" d="M0,0V128H31.19c1.3-1.5,2.6-2.99,3.91-4.48,22.83-25.32,48.7-47.9,76.98-66.88,32.24-21.72,68.17-38.89,106.6-45.73,7.72-1.27,15.51-2.52,23.35-2.59,3.5-.55,8.24,1.46,7.32,5.74-.97,3.32-4.56,4.72-7.33,6.21-30.06,14.03-58.48,31.72-83.67,53.49-18.29,16.06-35.35,33.74-48.55,54.23H255V0H0Z"/></clipPath></defs><g id="Ebene_1-2"><g><g id="layer3"><g class="cls-10"><g id="g882" transform="matrix(0.09161905,0,0,0.08333333,18.812,10)"><rect id="rect858" class="cls-13" x="39" y="14" width="202" height="113"/><rect id="rect860" class="cls-6" x="39" y="14" width="202" height="94"/><rect id="rect862" class="cls-2" x="39" y="14" width="202" height="76"/><rect id="rect864" class="cls-14" x="39" y="14" width="202" height="57"/><rect id="rect866" class="cls-8" x="39" y="14" width="202" height="38"/><rect id="rect868" class="cls-9" x="39" y="14" width="202" height="19"/></g></g></g><g id="layer1"><g class="cls-5"><circle id="path846" class="cls-3" cx="127.65" cy="127.29" r="113.39"/></g></g><g id="text9060" class="cls-4"><g class="cls-4"><text class="cls-12" transform="translate(17.52 172.56)"><tspan x="0" y="0">Bundes</tspan><tspan class="cls-7" x="103.15" y="0">v</tspan><tspan class="cls-1" x="119.52" y="0">erband</tspan></text></g><g class="cls-4"><text class="cls-12" transform="translate(31.86 205.97)"><tspan x="0" y="0">studentischer</tspan></text></g><g class="cls-4"><text class="cls-12" transform="translate(51 239.38)"><tspan x="0" y="0">Raumfahrt</tspan></text></g></g></g></g></svg>