<?xml version="1.0" encoding="utf-8"?>
<!-- Generator: Adobe Illustrator 22.0.1, SVG Export Plug-In . SVG Version: 6.00 Build 0)  -->
<svg version="1.1" xmlns="http://www.w3.org/2000/svg" xmlns:xlink="http://www.w3.org/1999/xlink" x="0px" y="0px"
	 viewBox="0 0 167.1 45.7" style="enable-background:new 0 0 167.1 45.7;" xml:space="preserve">
<style type="text/css">
	.st0{fill:#0761B0;}
	.st1{fill:#6AB2E1;}
	.st2{fill:#9BDAFA;}
</style>
<g id="WARR_x5F_Font">
	<path class="st0" d="M107.2,13.4L101.2,32h-5.7L92,20.7L88.2,32h-5.7l-6.1-18.7H82l3.8,11.9l3.9-11.9h4.9l3.8,12l3.9-12H107.2z"/>
	<path class="st0" d="M121,28.4h-7.9l-1.5,3.6h-5.4l8.2-18.7h5.2L128,32h-5.5L121,28.4z M119.5,24.5l-2.4-6l-2.4,6H119.5z"/>
	<path class="st0" d="M137.6,27.1h-2.9v5h-5.3V13.4h8.5c1.7,0,3.2,0.3,4.4,0.8c1.2,0.6,2.2,1.4,2.9,2.4c0.7,1,1,2.3,1,3.7
		c0,1.4-0.3,2.5-0.9,3.5c-0.6,1-1.5,1.8-2.7,2.4l4,5.9H141L137.6,27.1z M140.1,18.2c-0.6-0.5-1.4-0.7-2.5-0.7h-2.9V23h2.9
		c1.1,0,1.9-0.2,2.5-0.7c0.6-0.5,0.8-1.1,0.8-2C140.9,19.4,140.7,18.7,140.1,18.2z"/>
	<path class="st0" d="M157.3,27.1h-2.9v5h-5.3V13.4h8.5c1.7,0,3.2,0.3,4.4,0.8c1.2,0.6,2.2,1.4,2.9,2.4c0.7,1,1,2.3,1,3.7
		c0,1.4-0.3,2.5-0.9,3.5c-0.6,1-1.5,1.8-2.7,2.4l4,5.9h-5.7L157.3,27.1z M159.8,18.2c-0.6-0.5-1.4-0.7-2.5-0.7h-2.9V23h2.9
		c1.1,0,1.9-0.2,2.5-0.7c0.6-0.5,0.8-1.1,0.8-2C160.7,19.4,160.4,18.7,159.8,18.2z"/>
</g>
<g id="Logo">
	<path class="st0" d="M23-0.4L0.2,22.3L23,45.1l22.8-22.8L23-0.4z M23,38.4L6.9,22.3L23,6.2L39,22.3L23,38.4z"/>
	<polygon class="st1" points="33.8,-0.4 56.6,22.3 33.8,45.1 30.5,41.7 49.9,22.3 30.5,2.9 	"/>
	<polygon class="st1" points="23,10.4 26.3,13.7 17.7,22.3 26.3,30.9 23,34.2 11,22.3 	"/>
	<polygon class="st2" points="28.4,15.8 31.7,19.1 28.6,22.3 31.7,25.5 28.4,28.8 21.9,22.3 	"/>
	<polygon class="st2" points="44.6,-0.4 67.4,22.3 44.6,45.1 41.3,41.7 60.7,22.3 41.3,2.9 	"/>
</g>
</svg>
