<svg xmlns="http://www.w3.org/2000/svg" xmlns:xlink="http://www.w3.org/1999/xlink" viewBox="0 0 500 500">
  <defs>
    <style>
      .cls-1 {
        clip-path: url(#clip-Benutzerdefinierte_Größe_1);
      }

      .cls-2 {
        font-size: 90px;
        font-family: Orbitron-Regular, Orbitron;
      }
    </style>
    <clipPath id="clip-Benutzerdefinierte_Größe_1">
      <rect width="500" height="500"/>
    </clipPath>
  </defs>
  <g id="Benutzerdefinierte_Größe_1" data-name="Benutzerdefinierte Größe – 1" class="cls-1">
    <g id="Logo_TUDSaT" data-name="Logo TUDSaT" transform="translate(198.144 344.463)">
      <g id="Logo_TUDSaT-2" data-name="Logo TUDSaT" transform="translate(-131.225 -242.658)">
        <path id="Pfad_1" data-name="Pfad 1" d="M434.939,326.9c-.977-2.042-1.461-5.281.794-5.809,5.421,11.239,10.407,22.877,12.039,35.186s-.411,25.5-7.983,35.5c-6.778,8.95-17.367,14.591-28.338,17.746-20.682,5.948-42.922,3.866-64.043-.388-65.481-13.189-125.181-46.456-177.486-86.917,10.7-2.768,21.132,4.414,29.991,10.861a439.815,439.815,0,0,0,102.4,55.37c26.375,10.023,54.081,17.588,82.391,18.435,18.888.565,39.936-2.975,51.5-17.488,6.915-8.679,9.31-20.183,8.392-31.12S439.7,336.851,434.939,326.9Z" transform="translate(-71.861 -124.206)"/>
        <path id="Pfad_3" data-name="Pfad 3" d="M227.933,1.139a3.566,3.566,0,0,1,.4,2.018q.016,18.739.032,37.477c0,1.775-.572,4.154-2.4,4.155l-39.6.025a4.9,4.9,0,0,1-2.811-.566c-1.231-.848-1.342-2.55-1.336-4.015q.078-17.869.156-35.738a4.942,4.942,0,0,1,.811-3.3C184.147.086,185.85,0,187.347,0l37.231.027C225.813.028,227.26.134,227.933,1.139Z" transform="translate(-76.392 0)"/>
        <path id="Pfad_8" data-name="Pfad 8" d="M119.777,20.6l-21-1.854c-13.365-1.18-26.939-2.351-40.122.091s-26.159,9.018-33.117,20.16c-9.348,14.968-5.929,34.349.712,50.623A151.044,151.044,0,0,0,44.855,122.6c-2.323,1.667-5.76,1.028-8.025-.712s-3.632-4.328-4.931-6.833c-6.611-12.751-13.3-25.711-16.047-39.734s-1.1-29.5,7.76-40.9c11.981-15.418,33.81-19.872,53.7-20.232C91.735,13.932,106.428,15.286,119.777,20.6Z" transform="translate(-14.639 -5.478)"/>
        <path id="Pfad_9" data-name="Pfad 9" d="M420.879,146.7c-43.394-42.451-98.221-72.241-154.572-96.4-1.939-.831-4.248-2.873-2.922-4.479a490.658,490.658,0,0,1,163.8,101.223c-.033,1.314-1.682,2.121-3.006,1.845A7.108,7.108,0,0,1,420.879,146.7Z" transform="translate(-106.158 -17.727)"/>
        <text id="TUDSaT" class="cls-2" transform="translate(-10.652 191.524)"><tspan x="0" y="0">TUDSaT</tspan></text>
      </g>
    </g>
  </g>
</svg>
