<?xml version="1.0" encoding="UTF-8" standalone="no"?>
<!DOCTYPE svg PUBLIC "-//W3C//DTD SVG 1.1//EN" "http://www.w3.org/Graphics/SVG/1.1/DTD/svg11.dtd">
<svg width="100%" height="100%" viewBox="0 0 6000 6000" version="1.1" xmlns="http://www.w3.org/2000/svg" xmlns:xlink="http://www.w3.org/1999/xlink" xml:space="preserve" xmlns:serif="http://www.serif.com/" style="fill-rule:evenodd;clip-rule:evenodd;stroke-linejoin:round;stroke-miterlimit:1.5;">
    <g transform="matrix(1,0,0,1.10855,0,-756.106)">
        <rect x="-266.97" y="490.061" width="7452.61" height="6475.57" style="fill:white;"/>
    </g>
    <g id="Drachenteile-hinten" serif:id="Drachenteile hinten" transform="matrix(1.05288,0,0,1.05288,-158.384,-148.596)">
        <g transform="matrix(-1,0,0,1,6547.93,-285.447)">
            <path d="M3397.26,2340.47C3385.17,2364.51 3389.07,2384.8 3378.67,2415.42C3222.62,2274.41 3178.63,2170.03 3172.89,2026.74C3091.57,2114.3 2972.19,2064.68 2838.51,2012.16C2787.84,1992.25 2713.62,2048.8 2678.53,1982.98C2654.23,2085.63 2551.22,2047.72 2476.96,2146.85C2371.4,2287.75 2319.49,2507.79 2080.8,2619C2187.05,2610.14 2004.6,3120.18 2131.86,3492.77C2135.57,2987.95 2497.93,2777.51 2633.59,2720.51C2633.59,2720.51 2627.45,2797.14 2642.61,2928.81C2686.57,2855.76 2731.7,2797.77 2778.9,2766.82C2867.14,2795.26 2817.19,2789.47 2873.22,2841.84C2976.07,2937.96 2893.51,3082.57 3041.09,3249.87C3040.12,3148.27 3050.1,3058.82 3078.28,2989.61C3185.86,2984.49 3309.88,2885.53 3401.38,2872.76L3397.26,2340.47Z" style="fill:rgb(156,16,3);"/>
            <path d="M3363.89,2368.37C3366.02,2355.28 3368.85,2342.93 3375.57,2329.57C3380.6,2319.55 3391.85,2314.29 3402.76,2316.83C3413.68,2319.38 3421.44,2329.07 3421.53,2340.28L3425.65,2872.58C3425.74,2884.76 3416.8,2895.12 3404.73,2896.8C3361.03,2902.9 3309.79,2930.15 3256.41,2955.92C3202.99,2981.7 3147.65,3006.11 3095.52,3012.47C3072.41,3077.11 3064.49,3158.3 3065.37,3249.64C3065.46,3259.78 3059.25,3268.9 3049.79,3272.53C3040.32,3276.16 3029.6,3273.53 3022.89,3265.93C2945.1,3177.75 2927.63,3095.69 2916.39,3022.87C2906.61,2959.52 2903.81,2903.64 2856.65,2859.58C2837,2841.21 2828.69,2828.81 2823.63,2819.76C2820.87,2814.81 2820.4,2811.2 2817.47,2808.13C2815.82,2806.4 2813.09,2805.23 2808.64,2803.26C2802.47,2800.53 2794.18,2797.46 2782.85,2793.66C2741.5,2824.32 2702.21,2876.84 2663.4,2941.33C2658.04,2950.23 2647.62,2954.74 2637.46,2952.53C2627.31,2950.33 2619.68,2941.91 2618.49,2931.59C2609.54,2853.76 2607.89,2794.74 2608.1,2758.78C2458.12,2832.18 2159.45,3041.34 2156.13,3492.95C2156.04,3504.79 2147.43,3514.83 2135.75,3516.73C2124.06,3518.62 2112.72,3511.82 2108.89,3500.62C2018.73,3236.65 2081.1,2904.55 2090.39,2732.1C2092.19,2698.67 2092.14,2671.86 2087.6,2653.73C2086.95,2651.12 2086.2,2648.76 2085.3,2646.66C2084.58,2644.98 2084.5,2643.05 2082.81,2643.19C2071.09,2644.16 2060.36,2636.6 2057.34,2625.23C2054.32,2613.86 2059.89,2601.96 2070.55,2597C2208.48,2532.73 2281.24,2430.33 2339.66,2329.7C2380.61,2259.18 2414.79,2189.36 2457.54,2132.29C2497.97,2078.32 2545.75,2060.95 2587.2,2043.81C2618.1,2031.03 2645.05,2019.03 2654.92,1977.39C2657.24,1967.56 2665.41,1960.2 2675.42,1958.91C2685.43,1957.61 2695.2,1962.65 2699.95,1971.56C2714.96,1999.71 2741.18,1992.31 2766.61,1988.27C2794.84,1983.79 2823.34,1980.12 2847.39,1989.57C2912.3,2015.07 2973.65,2040.15 3028.74,2047.95C3077.2,2054.8 3120.37,2047.63 3155.11,2010.22C3161.78,2003.03 3172.12,2000.57 3181.32,2003.97C3190.51,2007.37 3196.76,2015.97 3197.15,2025.77C3202.24,2152.92 3239.5,2247.7 3363.89,2368.37ZM3397.26,2340.47C3385.17,2364.51 3389.07,2384.8 3378.67,2415.42C3222.62,2274.41 3178.63,2170.03 3172.89,2026.74C3091.57,2114.3 2972.19,2064.68 2838.51,2012.16C2787.84,1992.25 2713.62,2048.8 2678.53,1982.98C2654.23,2085.63 2551.22,2047.72 2476.96,2146.85C2371.4,2287.75 2319.49,2507.79 2080.8,2619C2187.05,2610.14 2004.6,3120.18 2131.86,3492.77C2135.57,2987.95 2497.93,2777.51 2633.59,2720.51C2633.59,2720.51 2627.45,2797.14 2642.61,2928.81C2686.57,2855.76 2731.7,2797.77 2778.9,2766.82C2867.14,2795.26 2817.19,2789.47 2873.22,2841.84C2976.07,2937.96 2893.51,3082.57 3041.09,3249.87C3040.12,3148.27 3050.1,3058.82 3078.28,2989.61C3185.86,2984.49 3309.88,2885.53 3401.38,2872.76L3397.26,2340.47Z" style="fill:white;"/>
        </g>
        <g>
            <g transform="matrix(1,0,0,1,110,2.84217e-14)">
                <path d="M3032.28,3627.3L3035.06,3627.3L3035.06,3540.15C3231.67,3710.38 3497.96,3834.23 3834.9,3843.63C3782.1,3869.47 3704.2,3875.85 3611.36,3864.99C3620.72,3881.49 3660.07,3900.99 3717.4,3922.28C3485.74,3872.61 3403.31,3835.38 3328.41,3798.77C3329.56,3809.3 3360.64,3834.8 3426.57,3877.72C3249.01,3802.11 3151.23,3742.46 3087.08,3689.53C3084.09,3710.36 3120.8,3752.36 3166.49,3799.15C3123.57,3769.15 3105.52,3743.11 3073.43,3719.26C3051.71,3666.22 3032.28,3627.3 3032.28,3627.3Z" style="fill:rgb(156,16,3);"/>
                <path d="M3010.73,3616.02C3007.12,3622.91 3007.01,3631.15 3010.51,3638.17C3010.51,3638.17 3029.58,3676.39 3050.91,3728.49C3052.59,3732.59 3055.36,3736.15 3058.92,3738.8C3091.19,3762.78 3109.39,3788.93 3152.55,3819.09C3162.84,3826.29 3176.91,3824.47 3185.04,3814.89C3191.53,3807.25 3192.52,3796.66 3188.18,3788.14C3245.75,3821.75 3319.56,3858.6 3417.04,3900.11C3428.64,3905.05 3442.11,3900.3 3448.04,3889.17C3450.13,3885.25 3451.05,3880.99 3450.88,3876.83C3511.15,3897.69 3591.83,3920.25 3712.3,3946.08C3724.77,3948.75 3737.19,3941.34 3740.76,3929.09C3744.33,3916.84 3737.83,3903.92 3725.87,3899.47C3720.9,3897.63 3716.06,3895.8 3711.38,3893.98C3764.83,3892.16 3810.44,3882.69 3845.6,3865.49C3855.65,3860.56 3861.05,3849.41 3858.68,3838.47C3856.31,3827.53 3846.77,3819.62 3835.58,3819.31C3505.09,3810.09 3243.84,3688.73 3050.99,3521.76C3043.79,3515.52 3033.61,3514.06 3024.95,3518.02C3016.29,3521.98 3010.73,3530.63 3010.73,3540.15L3010.73,3616.02ZM3032.28,3627.3L3035.06,3627.3L3035.06,3540.15C3231.67,3710.38 3497.96,3834.23 3834.9,3843.63C3782.1,3869.47 3704.2,3875.85 3611.36,3864.99C3620.72,3881.49 3660.07,3900.99 3717.4,3922.28C3485.74,3872.61 3403.31,3835.38 3328.41,3798.77C3329.56,3809.3 3360.64,3834.8 3426.57,3877.72C3249.01,3802.11 3151.23,3742.46 3087.08,3689.53C3084.09,3710.36 3120.8,3752.36 3166.49,3799.15C3123.57,3769.15 3105.52,3743.11 3073.43,3719.26C3051.71,3666.22 3032.28,3627.3 3032.28,3627.3Z" style="fill:white;"/>
            </g>
            <g transform="matrix(1,0,0,1,110,2.84217e-14)">
                <path d="M2744.43,2617.28L2447.85,2472.09C2375.28,2511.95 2322.14,2497.53 2307.87,2657.24C2340.44,2575.56 2355.86,2657.52 2383.2,2657.13C2349.89,2719.85 2332.75,2811.46 2344.78,2955.17C2351.33,2911.95 2352.05,2854.84 2379.55,2857.39C2366.51,2954.74 2374.3,3045.15 2400.13,3129.55C2399.92,3060.64 2402.32,3002.16 2418.35,2998.21C2419.24,3061.61 2429.76,3134.15 2495.63,3259.28C2482.83,3214.12 2478.12,3180.64 2494.49,3177.6C2513.69,3241.95 2547.53,3310.49 2612.08,3387.81C2583.51,3330.54 2567.13,3291.17 2587.18,3305.21C2617.17,3369.02 2643.31,3435.53 2744.43,3533.29L2744.43,3530.23C2723.43,3498.42 2716.11,3468.67 2724.43,3451.5C2733.7,3463.82 2734.01,3476.36 2744.43,3489.12L2744.43,3150.91C2658.75,2960.47 2653.69,2798.85 2744.43,2658.85L2744.43,2617.28Z" style="fill:rgb(156,16,3);"/>
                <path d="M2337.33,2652.06C2341.71,2657.08 2347.33,2663.35 2351.17,2667.03C2351.23,2667.09 2351.3,2667.15 2351.36,2667.21C2323.28,2731.81 2309.26,2822.6 2320.54,2957.2C2321.57,2969.5 2331.64,2979.08 2343.97,2979.49C2345.93,2979.55 2347.85,2979.38 2349.7,2979C2352.18,3033.74 2361.43,3086.24 2376.86,3136.66C2380.39,3148.2 2391.84,3155.41 2403.76,3153.6C2409.92,3152.67 2415.25,3149.49 2418.95,3144.96C2430.9,3180.77 2448.43,3221.87 2474.1,3270.62C2479.9,3281.64 2493.09,3286.5 2504.66,3281.88C2506.4,3281.18 2508.01,3280.31 2509.49,3279.28C2529.77,3318.48 2556.83,3359.6 2593.4,3403.4C2598.6,3409.63 2606.33,3412.65 2613.95,3412.07C2637.97,3452.08 2671.68,3496.8 2727.52,3550.78C2734.54,3557.57 2744.94,3559.5 2753.94,3555.69C2762.93,3551.88 2768.77,3543.06 2768.77,3533.29L2768.77,3530.23C2768.77,3525.46 2767.37,3520.8 2764.74,3516.82C2762.84,3513.95 2761.07,3511.09 2759.43,3508.28C2765.22,3503.76 2768.77,3496.74 2768.77,3489.12L2768.77,3150.91C2768.77,3147.47 2768.04,3144.07 2766.62,3140.93C2684.98,2959.47 2678.39,2805.48 2764.85,2672.09C2767.41,2668.14 2768.77,2663.55 2768.77,2658.85L2768.77,2617.28C2768.77,2607.99 2763.48,2599.51 2755.13,2595.43L2458.55,2450.23C2451.44,2446.75 2443.08,2446.95 2436.14,2450.76C2414.87,2462.44 2395.28,2469.3 2377.95,2477.46C2356.55,2487.53 2338.14,2499.46 2322.87,2520.05C2304.22,2545.18 2289.93,2584.6 2283.64,2655.08C2282.56,2667.11 2290.47,2678.11 2302.22,2680.91C2313.97,2683.71 2326,2677.47 2330.47,2666.25C2332.51,2661.16 2335.08,2656.1 2337.33,2652.06ZM2744.43,2617.28L2447.85,2472.09C2375.28,2511.95 2322.14,2497.53 2307.87,2657.24C2340.44,2575.56 2355.86,2657.52 2383.2,2657.13C2349.89,2719.85 2332.75,2811.46 2344.78,2955.17C2351.33,2911.95 2352.05,2854.84 2379.55,2857.39C2366.51,2954.74 2374.3,3045.15 2400.13,3129.55C2399.92,3060.64 2402.32,3002.16 2418.35,2998.21C2419.24,3061.61 2429.76,3134.15 2495.63,3259.28C2482.83,3214.12 2478.12,3180.64 2494.49,3177.6C2513.69,3241.95 2547.53,3310.49 2612.08,3387.81C2583.51,3330.54 2567.13,3291.17 2587.18,3305.21C2617.17,3369.02 2643.31,3435.53 2744.43,3533.29L2744.43,3530.23C2723.43,3498.42 2716.11,3468.67 2724.43,3451.5C2733.7,3463.82 2734.01,3476.36 2744.43,3489.12L2744.43,3150.91C2658.75,2960.47 2653.69,2798.85 2744.43,2658.85L2744.43,2617.28Z" style="fill:white;"/>
            </g>
        </g>
        <g id="Flügellinien-rechts" serif:id="Flügellinien rechts" transform="matrix(-1,0,0,1,5689.97,0)">
            <path d="M2183.13,2964.42C2032.83,2570.17 2212.7,2248.13 2487.48,2091.61" style="fill:none;stroke:white;stroke-width:24.27px;"/>
            <path d="M2456.33,2053.02C2049.04,2018.84 1886.48,2262.66 1781.95,2651.05" style="fill:none;stroke:white;stroke-width:24.27px;"/>
            <path d="M2392.54,1980.95C1839.82,1706.21 1217.04,2397.67 1271.83,3219.26" style="fill:none;stroke:white;stroke-width:24.27px;"/>
        </g>
    </g>
    <g id="Logo-ohne-Drache" serif:id="Logo ohne Drache">
        <g transform="matrix(4.8,0,0,4.8,600,753.181)">
            <g id="Innerer-Kreis" serif:id="Innerer Kreis">
                <g id="Teilkreise">
                    <path d="M553.207,740.824C555.737,744.471 557.202,748.795 557.202,753.43C557.202,757.687 555.966,761.683 553.805,765.131C558.597,762.905 563.953,761.66 569.604,761.66C583.227,761.66 595.139,768.897 601.555,779.656C611.066,763.273 628.563,752.281 648.556,752.281C654.814,752.281 660.827,753.358 666.431,755.341C666.943,722.266 696.51,695.561 732.856,695.561C740.666,695.561 748.163,696.794 755.127,699.058C751.978,691.221 750.244,682.651 750.244,673.675C750.244,636.383 780.183,606.107 817.061,606.107C835.628,606.107 852.437,613.783 864.548,626.173C816.363,732.516 723.005,814.093 609.002,846.358C608.637,845.966 608.278,845.57 607.924,845.167C608.278,845.57 608.637,845.966 609.002,846.358C574.33,856.173 537.773,861.421 500,861.421C464.059,861.421 429.219,856.67 396.104,847.741C402.56,841.345 407.44,833.313 410.143,824.314C407.44,833.313 402.56,841.345 396.104,847.741C281.526,816.972 187.208,736.544 137.688,630.96C149.941,615.793 168.579,606.107 189.437,606.107C226.314,606.107 256.254,636.383 256.254,673.675C256.254,682.651 254.519,691.221 251.371,699.058C258.335,696.794 265.831,695.561 273.641,695.561C309.987,695.561 339.555,722.266 340.066,755.341C345.67,753.358 351.683,752.281 357.941,752.281C377.934,752.281 395.431,763.273 404.943,779.656C411.358,768.897 423.271,761.66 436.894,761.66C439.289,761.66 441.631,761.884 443.901,762.312C443.499,760.443 443.288,758.503 443.288,756.512C443.288,751.177 444.809,746.199 447.436,742.002L553.207,740.824Z"/>
                    <path d="M405.938,834.507C403.327,839.419 400.003,843.878 396.104,847.741C281.526,816.972 187.208,736.544 137.688,630.96C149.941,615.793 168.579,606.107 189.437,606.107C226.314,606.107 256.254,636.383 256.254,673.675C256.254,682.651 254.519,691.221 251.371,699.058C258.335,696.794 265.831,695.561 273.641,695.561C309.987,695.561 339.555,722.266 340.066,755.341C345.67,753.358 351.683,752.281 357.941,752.281C377.934,752.281 395.431,763.273 404.943,779.656C411.358,768.897 423.271,761.66 436.894,761.66C439.289,761.66 441.631,761.884 443.901,762.312C443.499,760.443 443.288,758.503 443.288,756.512C443.288,751.177 444.809,746.199 447.436,742.002L553.207,740.824C555.737,744.471 557.202,748.795 557.202,753.43C557.202,757.687 555.966,761.683 553.805,765.131C558.597,762.905 563.953,761.66 569.604,761.66C583.227,761.66 595.139,768.897 601.555,779.656C611.066,763.273 628.563,752.281 648.556,752.281C654.814,752.281 660.827,753.358 666.431,755.341C666.943,722.266 696.51,695.561 732.856,695.561C740.666,695.561 748.163,696.794 755.127,699.058C751.978,691.221 750.244,682.651 750.244,673.675C750.244,636.383 780.183,606.107 817.061,606.107C835.628,606.107 852.437,613.783 864.548,626.173C817.115,730.857 725.907,811.542 614.331,844.809L609.002,846.358C574.33,856.173 537.773,861.421 500,861.421C464.059,861.421 429.219,856.67 396.104,847.741C400.003,843.878 403.327,839.419 405.938,834.507C407.66,831.291 409.072,827.879 410.143,824.314C409.072,827.879 407.66,831.291 405.938,834.507ZM610.364,831.498C714.727,800.381 800.624,726.285 847.511,629.785C838.903,623.622 828.398,619.996 817.061,619.996C787.806,619.996 764.133,644.091 764.133,673.675C764.133,680.82 765.509,687.643 768.015,693.882C770.025,698.886 768.956,704.602 765.273,708.542C761.591,712.482 755.96,713.934 750.831,712.266C745.211,710.439 739.159,709.45 732.856,709.45C704.427,709.45 680.718,729.685 680.318,755.556C680.249,760.027 678.031,764.192 674.36,766.745C670.689,769.297 666.013,769.926 661.797,768.435C657.646,766.965 653.192,766.17 648.556,766.17C633.658,766.17 620.654,774.421 613.566,786.63C611.095,790.885 606.557,793.516 601.636,793.545C596.715,793.574 592.146,790.996 589.626,786.769C585.61,780.035 578.13,775.549 569.604,775.549C566.046,775.549 562.672,776.326 559.655,777.728C554.076,780.318 547.458,778.931 543.389,774.318C539.32,769.706 538.77,762.967 542.036,757.755C542.595,756.864 542.996,755.877 543.182,754.826L457.196,755.783C457.183,756.024 457.176,756.267 457.176,756.512C457.176,757.5 457.28,758.464 457.48,759.391C458.458,763.939 457.094,768.674 453.848,772.005C450.601,775.337 445.902,776.821 441.331,775.96C439.893,775.69 438.41,775.549 436.894,775.549C428.367,775.549 420.887,780.035 416.872,786.769C414.351,790.996 409.783,793.574 404.862,793.545C399.94,793.516 395.402,790.885 392.931,786.63C385.843,774.421 372.84,766.17 357.941,766.17C353.306,766.17 348.851,766.965 344.7,768.435C340.485,769.926 335.809,769.297 332.137,766.745C328.466,764.192 326.248,760.027 326.179,755.556C325.779,729.685 302.071,709.45 273.641,709.45C267.338,709.45 261.287,710.439 255.666,712.266C250.538,713.934 244.907,712.482 241.224,708.542C237.541,704.602 236.473,698.886 238.483,693.882C240.989,687.643 242.365,680.82 242.365,673.675C242.365,644.091 218.692,619.996 189.437,619.996C175.973,619.996 163.686,625.11 154.351,633.509C201.861,728.696 287.529,801.538 391.269,831.957L391.341,831.85L392.067,830.748L392.318,830.344L392.844,829.476L393.103,829.028L393.605,828.121L393.82,827.722L394.485,826.402L394.519,826.327L395.1,825.053L395.285,824.617L395.677,823.661L395.867,823.171L396.225,822.191L396.381,821.748L396.841,820.318C399.048,812.972 406.792,808.805 414.138,811.012C421.485,813.219 425.651,820.963 423.445,828.309C423.257,828.935 423.061,829.556 422.853,830.173L422.779,830.406L422.7,830.628C422.493,831.242 422.278,831.852 422.055,832.458L421.548,833.786L421.35,834.275L421.26,834.507L421.172,834.715C420.93,835.309 420.679,835.899 420.421,836.484L420.409,836.511L420.361,836.615L419.845,837.75L419.606,838.25L419.499,838.481L419.403,838.673L419.226,839.042C445.268,844.609 472.295,847.532 500,847.532C534.106,847.532 567.186,843.102 598.714,834.773L598.752,834.738C602.054,831.834 606.347,830.78 610.364,831.498Z"/>
                    <g transform="matrix(1.08957,0,0,0.984844,-106.739,-23.217)">
                        <path d="M207.623,617.527C196.014,578.024 189.743,535.864 189.743,492.096C189.743,299.165 311.597,137.472 474.73,96.161" style="fill:none;stroke:black;stroke-width:6.69px;"/>
                    </g>
                    <g transform="matrix(1.08957,0,0,0.984844,-106.739,-23.217)">
                        <path d="M636.809,95.616C801.036,136.034 923.976,298.306 923.976,492.096C923.976,534.116 918.196,574.655 907.468,612.787" style="fill:none;stroke:black;stroke-width:6.69px;"/>
                    </g>
                </g>
            </g>
        </g>
        <g id="Rakete" transform="matrix(5.71994,0,0,5.53795,140.032,178.563)">
            <g id="Korpus" transform="matrix(1,0,0,0.993359,0,1.793)">
                <g transform="matrix(1,0,0,0.891714,15,29.2372)">
                    <rect x="460" y="270" width="50" height="405" style="fill:none;stroke:black;stroke-width:6.26px;stroke-linecap:round;"/>
                </g>
                <g transform="matrix(1,0,0,1,7,0)">
                    <path d="M511.717,269.998L511.717,633.193" style="fill:none;stroke:black;stroke-width:2.97px;stroke-linecap:round;"/>
                </g>
                <g transform="matrix(0.308108,0,0,0.884673,333.27,31.1383)">
                    <rect x="460" y="270" width="50" height="405" style="stroke:black;stroke-width:9.11px;stroke-linecap:round;"/>
                </g>
                <g transform="matrix(1,0,0,1,-1.42109e-14,92.9575)">
                    <path d="M490,250.695L526,250.695" style="fill:none;stroke:black;stroke-width:2.97px;stroke-linecap:round;"/>
                </g>
                <g transform="matrix(1,0,0,1,-1.42109e-14,216.901)">
                    <path d="M490,250.695L526,250.695" style="fill:none;stroke:black;stroke-width:2.97px;stroke-linecap:round;"/>
                </g>
            </g>
            <g id="Triebwerke" transform="matrix(1.04766,0,0,1,-23.8282,101.12)">
                <g transform="matrix(0.884435,0,0,0.884435,71.0491,106.537)">
                    <path d="M435,609.022C436.101,536.425 460,480 460,480L510,480C510,480 539.819,537.155 535,609.022L435,609.022Z" style="fill:none;stroke:black;stroke-width:6.53px;stroke-linecap:round;"/>
                </g>
                <g transform="matrix(0.884435,0,0,0.884435,71.0491,106.537)">
                    <path d="M477.207,480L510,480C510,480 539.819,537.155 535,609.022L466.075,609.022" style="fill:none;stroke:black;stroke-width:6.53px;stroke-linecap:round;"/>
                </g>
                <g transform="matrix(0.884435,0,0,0.884435,71.0491,106.537)">
                    <path d="M466.075,609.022L435,609.022C436.101,536.425 460,480 460,480L477.207,480C470.782,515.874 467.177,559.159 466.075,609.022Z" style="stroke:black;stroke-width:6.53px;stroke-linecap:round;"/>
                </g>
            </g>
            <g id="Spitze">
                <g transform="matrix(1,0,0,1,14,0)">
                    <path d="M516,270L456,270L456,155C461.074,119.407 471.48,100.8 486,97.483C499.074,100.731 511.036,120.184 516,155L516,270Z" style="fill:none;stroke:black;stroke-width:5.92px;stroke-linecap:round;"/>
                </g>
                <g transform="matrix(1,0,0,1,-1.42109e-14,-36)">
                    <path d="M470,250.695L530,250.695" style="fill:none;stroke:black;stroke-width:2.96px;stroke-linecap:round;"/>
                </g>
                <g transform="matrix(1,0,0,1,-1.42109e-14,-76)">
                    <path d="M470,250.695L530,250.695" style="fill:none;stroke:black;stroke-width:2.96px;stroke-linecap:round;"/>
                </g>
                <g transform="matrix(1,0,0,1,-1.42109e-14,-116)">
                    <path d="M480,250.695L525,250.695" style="fill:none;stroke:black;stroke-width:2.96px;stroke-linecap:round;"/>
                </g>
                <g transform="matrix(1,0,0,1,14,0)">
                    <path d="M468,270L456,270L456,155C461.074,119.407 471.48,100.8 486,97.483C461.706,131.16 468.501,161.788 468,270Z" style="stroke:black;stroke-width:5.92px;stroke-linecap:round;"/>
                </g>
                <path d="M470,250.695L530,250.695" style="fill:none;stroke:black;stroke-width:2.96px;stroke-linecap:round;"/>
            </g>
        </g>
        <g id="Ränder" transform="matrix(1.05288,0,0,1.05288,52.1929,163.057)">
            <g transform="matrix(1,0,0,1,-200,-296)">
                <path d="M2847.99,1864.09C2809.79,1872.7 2775.13,1887.61 2743.71,1910.72C2688.71,1951.19 2643.24,2017.36 2607.67,2122.15C2607.48,2122.7 2607.31,2123.26 2607.16,2123.83L2470.36,2648.29C2436.39,2713.79 2418.12,2808.9 2430.54,2957.2C2431.57,2969.5 2441.64,2979.08 2453.97,2979.49C2455.93,2979.55 2457.85,2979.38 2459.7,2979C2462.18,3033.74 2471.43,3086.24 2486.86,3136.66C2490.39,3148.2 2501.84,3155.41 2513.76,3153.6C2525.69,3151.8 2534.5,3141.53 2534.46,3129.47C2534.34,3089.8 2534.97,3053.71 2538.94,3030.38C2539.38,3027.77 2540.13,3024.81 2540.84,3022.3L2805.97,3016.92C2813.01,3016.78 2819.64,3013.59 2824.16,3008.19C2828.67,3002.78 2830.62,2995.69 2829.5,2988.74C2812.23,2881.14 2824.6,2779.01 2870.77,2694.76C2870.77,2694.76 2905.45,2642.94 2905.45,2642.94C2966.55,2575.85 3010.1,2481.24 3018.99,2408.09C3033.32,2290.28 2998.49,2234.16 2977.83,2192.84C2971.15,2179.5 2965.09,2168.95 2968.24,2156.58C2971.97,2141.86 2986.01,2126.64 3013.7,2104.06C3017.56,2100.91 3023.54,2099.47 3030.15,2098.47C3044.04,2096.36 3060.63,2097.64 3075.04,2102.02C3086.4,2105.48 3097.37,2109.6 3100.17,2118.43C3101.15,2121.52 3100.1,2124.97 3098.11,2129.01C3093.9,2137.58 3085.71,2146.85 3073.21,2157.37C3065.23,2164.09 3062.41,2175.14 3066.22,2184.85C3070.02,2194.57 3079.59,2200.78 3090.01,2200.29C3127.62,2198.54 3178.88,2191.14 3206.22,2200.25C3224.07,2206.2 3239.08,2221.74 3241.26,2238.04C3242.5,2247.31 3248.93,2255.05 3257.82,2257.95C3266.7,2260.85 3276.47,2258.41 3282.94,2251.66C3291.06,2243.2 3314.31,2228.95 3319.88,2225.6C3323.81,2226.14 3327.87,2225.7 3331.67,2224.28C3338.55,2221.7 3343.89,2216.15 3346.22,2209.19C3348.1,2203.53 3356.92,2179.2 3357.97,2158.8C3358.66,2145.28 3355.88,2133.1 3350.13,2124.5C3345.06,2116.92 3336.17,2112.81 3327.11,2113.86C3319.36,2114.75 3312.6,2119.29 3308.81,2125.93C3307.93,2121.72 3306.82,2117.51 3305.47,2113.3C3302.23,2103.18 3292.8,2096.34 3282.18,2096.39C3271.56,2096.45 3262.2,2103.38 3259.06,2113.53C3257.8,2117.57 3255.11,2122.55 3253.85,2124.75L3253.23,2124.54C3210.62,2090.32 3202.43,2055.98 3192.23,2028.15C3187.86,2016.24 3183.14,2005.27 3176.79,1995.34C3191.39,1993.68 3206.75,1995.09 3222.25,1997.74C3255.2,2003.39 3288.82,2015.1 3319.32,2022.77C3351.92,2030.97 3381.4,2033.65 3405.38,2026.05C3406.69,2032.74 3410.8,2038.75 3416.96,2042.35C3426.28,2047.8 3438.08,2046.46 3445.94,2039.06L3449.06,2036.02C3449.35,2044.89 3454.48,2052.98 3462.54,2056.98C3471.29,2061.32 3481.79,2060.01 3489.21,2053.66C3510.37,2035.51 3525.56,2006.18 3522.31,1943.28C3521.96,1936.57 3518.86,1930.31 3513.73,1925.97C3508.61,1921.62 3501.91,1919.6 3495.24,1920.36C3491.84,1920.75 3490.36,1917.45 3488.34,1914.08C3481.88,1903.27 3477.81,1887.08 3474.61,1867.37C3472.89,1856.79 3464.45,1848.58 3453.82,1847.15C3443.2,1845.73 3432.89,1851.43 3428.45,1861.18C3413.38,1894.27 3381.15,1897.8 3325.07,1873.05C3285.04,1810.7 3227.24,1795.39 3161.63,1780.93C3104.57,1768.37 3040.99,1755.85 2982.56,1696.04C2982.54,1696.02 2969.09,1681.31 2969.09,1681.31C2960.12,1671.5 2944.94,1670.7 2934.99,1679.52C2925.04,1688.33 2924.01,1703.5 2932.68,1713.59C2937.48,1719.17 2942.32,1724.46 2947.17,1729.45C2947.15,1729.43 2997.56,1784.57 2997.56,1784.57C2982.55,1787.48 2968.6,1792.73 2955.2,1798.11C2939.93,1804.24 2926.08,1811.64 2911.08,1808.47C2895.67,1805.2 2881.15,1790.8 2862.1,1759.83C2855.9,1749.75 2843.35,1745.59 2832.36,1749.98C2821.37,1754.36 2815.12,1766.02 2817.56,1777.6C2824.11,1808.67 2830.07,1840.51 2847.99,1864.09ZM2493.2,2657.13C2459.89,2719.85 2442.75,2811.46 2454.78,2955.17C2461.33,2911.95 2462.05,2854.84 2489.55,2857.39C2476.51,2954.74 2484.3,3045.15 2510.13,3129.55C2509.92,3060.64 2512.32,3002.16 2528.35,2998.21L2805.48,2992.59C2787.22,2878.86 2800.9,2771.02 2849.96,2682.1L2886.25,2627.87C2944.52,2564.52 2986.39,2474.64 2994.84,2405.15C3021.65,2184.62 2863.46,2195.19 2998.32,2085.21C3038.28,2052.61 3194.31,2087.24 3088.88,2175.99C3129.35,2174.1 3184.5,2167.36 3213.91,2177.16C3240.68,2186.09 3262.11,2210.37 3265.38,2234.82C3280.21,2219.36 3313.66,2195.92 3323.13,2201.49C3325.49,2194.43 3340.74,2154.23 3329.91,2138.03C3319.47,2165.82 3305.3,2178.12 3286.03,2169.24C3288.32,2153.07 3287.48,2136.9 3282.3,2120.73C3274.53,2145.79 3261.3,2155.87 3240.63,2145.6C3157.66,2080.9 3185.5,2016.58 3131.66,1984.91C3225.87,1929.7 3371.24,2054.73 3423.17,1984.91C3432.41,1990.99 3433.59,2003.85 3429.25,2021.35C3444.04,2007.41 3452.98,1991.91 3459.61,1975.8C3470.22,1984.61 3475.26,2003.56 3473.37,2035.18C3490.61,2020.39 3500.66,1995.81 3498.01,1944.54C3472.16,1947.49 3458.19,1918.07 3450.59,1871.27C3430.18,1916.08 3386.7,1928.6 3308.25,1892.14C3235.97,1769.64 3090.06,1841.26 2964.85,1712.73L2951.13,1697.73C2955.68,1703.02 2960.26,1708.02 2964.85,1712.73L3057.73,1814.33C2963.68,1775.34 2922.34,1904.2 2841.37,1772.58C2852.13,1823.61 2856.77,1878.72 2943.86,1878.86C2799.09,1878.71 2697.74,1932.54 2630.71,2129.97L2493.2,2657.13Z" style="fill:white;"/>
            </g>
            <g transform="matrix(0.967883,0,0,1,-115.511,-296)">
                <path d="M1334.65,2357.82C1335.18,2358.62 1335.99,2359.96 1336.43,2360.98C1337.34,2363.1 1338.09,2365.48 1338.75,2368.12C1343.31,2386.3 1343.37,2413.18 1341.56,2446.69C1332.28,2619.08 1269.9,2951.08 1360.03,3214.96C1363.89,3226.27 1375.65,3233.21 1387.81,3231.36C1399.96,3229.51 1408.95,3219.41 1409.04,3207.5C1412.35,2757.41 1708.85,2548.07 1859.27,2474.01C1859.08,2510 1860.76,2568.75 1869.66,2646.06C1870.86,2656.49 1878.84,2665 1889.45,2667.17C1900.06,2669.34 1910.91,2664.68 1916.37,2655.61C1954.98,2591.45 1994.03,2539.15 2035.15,2508.45C2046.03,2512.11 2054.05,2515.09 2060.05,2517.75C2064.34,2519.65 2067.01,2520.76 2068.6,2522.44C2071.53,2525.5 2071.98,2529.11 2074.75,2534.05C2079.81,2543.11 2088.13,2555.51 2107.8,2573.9C2155,2618.01 2157.77,2673.91 2167.55,2737.31C2178.79,2810.09 2196.27,2892.1 2274.01,2980.22C2280.88,2988.01 2292.04,2990.8 2301.94,2987.22C2311.84,2983.63 2318.37,2974.43 2318.27,2964.2C2317.4,2872.86 2325.32,2791.67 2348.39,2727C2393.04,2721.44 2441.5,2702.83 2489.36,2681.3C2490.75,2681.42 2492.16,2681.48 2493.57,2681.46C2504.95,2681.29 2514.79,2673.76 2517.57,2663.08L2655.09,2135.93C2657.33,2127.33 2654.56,2118.24 2647.87,2112.19C2498.43,1977.16 2455.55,1877.57 2450.05,1740.35C2449.66,1730.45 2443.1,1721.77 2433.48,1718.4C2423.85,1715.04 2413.08,1717.65 2406.24,1725.02C2371.81,1762.09 2329.04,1769.25 2281.01,1762.45C2226.03,1754.68 2164.8,1729.62 2100.01,1704.17C2075.71,1694.62 2046.91,1698.26 2018.38,1702.79C1993.43,1706.75 1967.63,1713.99 1952.91,1686.38C1948.08,1677.3 1937.89,1672.11 1927.42,1673.39C1916.96,1674.67 1908.42,1682.14 1906.07,1692.1C1896.24,1733.6 1869.43,1745.68 1838.64,1758.41C1797.07,1775.6 1749.19,1793 1708.65,1847.11C1665.9,1904.18 1631.72,1974 1590.78,2044.52C1532.4,2145.06 1459.75,2247.41 1321.93,2311.63C1311,2316.72 1305.38,2328.65 1308.59,2339.98C1311.76,2351.2 1322.69,2358.66 1334.65,2357.82ZM2630.71,2129.97C2474.66,1988.97 2430.67,1884.58 2424.93,1741.29C2343.61,1828.85 2224.22,1779.23 2090.55,1726.72C2039.88,1706.81 1965.66,1763.35 1930.57,1697.53C1906.27,1800.19 1803.26,1762.27 1729,1861.4C1623.44,2002.31 1571.53,2222.34 1332.84,2333.55C1439.08,2324.7 1256.64,2834.73 1383.9,3207.32C1387.61,2702.51 1749.97,2492.06 1885.62,2435.06C1885.62,2435.06 1879.49,2511.7 1894.64,2643.37C1938.61,2570.31 1983.73,2512.32 2030.94,2481.37C2119.18,2509.81 2069.23,2504.03 2125.26,2556.4C2228.11,2652.51 2145.55,2797.12 2293.13,2964.42C2292.16,2862.82 2302.13,2773.38 2330.31,2704.16C2378.99,2701.85 2433.28,2680.04 2486.62,2655.66C2488.74,2656.62 2490.93,2657.16 2493.2,2657.13L2630.71,2129.97Z" style="fill:white;"/>
            </g>
        </g>
        <g id="Äußerer-Kreis" serif:id="Äußerer Kreis" transform="matrix(6,0,0,6,0,0)">
            <g transform="matrix(0.942244,0,0,1.00955,27.7872,-4.44092)">
                <path d="M501.158,88.595C744.242,88.595 941.596,272.792 941.596,499.671C941.596,726.55 744.242,910.746 501.158,910.746C258.073,910.746 60.72,726.55 60.72,499.671C60.72,272.792 258.073,88.595 501.158,88.595ZM501.158,94.098C740.988,94.098 935.7,275.829 935.7,499.671C935.7,723.512 740.988,905.243 501.158,905.243C261.328,905.243 66.616,723.512 66.616,499.671C66.616,275.829 261.328,94.098 501.158,94.098Z"/>
            </g>
            <g transform="matrix(1,0,0,1,21.1612,49.1823)">
                <g transform="matrix(0.911564,0.411158,-0.411158,0.911564,354.875,-47.9243)">
                    <text x="288.843px" y="800.983px" style="font-family:'FranklinGothic-DemiCond', 'Franklin Gothic Demi Cond', sans-serif;font-stretch:condensed;font-size:100px;">G</text>
                    <path d="M337.069,765.437L341.675,765.437L341.675,800.983L335.474,800.983L333.569,793.366C329.989,799.128 324.618,802.009 317.456,802.009C309.871,802.009 303.857,799.022 299.414,793.049C294.971,787.076 292.749,779.043 292.749,768.952C292.749,757.982 294.938,749.299 299.316,742.902C303.695,736.506 310.164,733.308 318.726,733.308C332.365,733.308 340.015,740.925 341.675,756.159L328.491,758.308C327.58,749.584 324.422,745.222 319.019,745.222C315.731,745.222 313.102,746.833 311.133,750.056C309.163,753.278 308.179,759.382 308.179,768.366C308.179,776.342 309.139,781.957 311.06,785.212C312.98,788.467 315.796,790.095 319.507,790.095C325.235,790.095 328.224,786.016 328.466,777.859C332.259,775.996 335.327,773.012 337.872,769.293C338.072,769.001 338.3,768.593 338.522,768.153C338.083,767.187 337.558,766.135 337.069,765.437ZM330.499,765.437L319.073,776.862L318.53,776.862L318.53,765.437L330.499,765.437Z"/>
                </g>
                <g transform="matrix(0.957526,0.288346,-0.288346,0.957526,253.339,-65.9205)">
                    <text x="350.43px" y="826.974px" style="font-family:'FranklinGothic-DemiCond', 'Franklin Gothic Demi Cond', sans-serif;font-stretch:condensed;font-size:100px;">I</text>
                    <path d="M356.729,760.324L371.377,760.324L371.377,826.974L356.729,826.974L356.729,760.324ZM357.98,793.649L364.053,799.722L370.126,793.649L364.053,787.576L357.98,793.649Z"/>
                </g>
                <g transform="matrix(0.98567,0.168686,-0.168686,0.98567,146.805,-52.91)">
                    <text x="384.815px" y="837.597px" style="font-family:'FranklinGothic-DemiCond', 'Franklin Gothic Demi Cond', sans-serif;font-stretch:condensed;font-size:100px;">E</text>
                    <path d="M391.114,770.946L431.641,770.946L431.641,782.372L405.763,782.372L405.763,797.851L425.88,797.851L425.88,809.276L405.763,809.276L405.763,825.683L431.641,825.683L431.641,837.597L391.114,837.597L391.114,770.946Z"/>
                </g>
                <g transform="matrix(0.999472,0.0324925,-0.0324925,0.999472,27.747,-13.8705)">
                    <text x="440.644px" y="846.791px" style="font-family:'FranklinGothic-DemiCond', 'Franklin Gothic Demi Cond', sans-serif;font-stretch:condensed;font-size:100px;">S</text>
                    <path d="M485.774,815.635L486.762,817.177C488.276,819.862 489.033,822.979 489.033,826.527C489.033,832.745 486.893,837.847 482.612,841.835C478.331,845.823 472.594,847.816 465.4,847.816C453.323,847.816 445.608,841.713 442.255,829.506L455.048,825.844C456.611,832.549 460.175,835.902 465.742,835.902C468.281,835.902 470.34,835.243 471.919,833.925C473.497,832.606 474.287,830.873 474.287,828.725C474.287,827.273 473.847,825.958 472.947,824.793C477.133,823.485 480.607,821.022 483.625,818.03C484.395,817.266 485.122,816.475 485.774,815.635ZM448.26,810.282L447.382,808.974C445.755,806.223 444.941,803.09 444.941,799.574C444.941,793.585 446.87,788.677 450.727,784.853C454.585,781.028 459.687,779.115 466.035,779.115C477.623,779.115 484.85,784.291 487.714,794.643L475.605,799.281C473.88,793.78 470.722,791.029 466.132,791.029C463.984,791.029 462.283,791.64 461.03,792.86C459.777,794.081 459.15,795.505 459.15,797.133C459.15,798.978 459.857,800.458 461.276,801.568C457.006,802.531 453.658,804.952 450.765,807.648C449.862,808.489 449.023,809.364 448.26,810.282Z"/>
                </g>
                <g transform="matrix(0.993286,-0.115684,0.115684,0.993286,-94.7398,63.6162)">
                    <text x="500.695px" y="848.009px" style="font-family:'FranklinGothic-DemiCond', 'Franklin Gothic Demi Cond', sans-serif;font-stretch:condensed;font-size:100px;">S</text>
                    <path d="M545.825,816.853L546.813,818.395C548.327,821.08 549.084,824.197 549.084,827.745C549.084,833.963 546.943,839.065 542.663,843.053C538.382,847.04 532.645,849.034 525.451,849.034C513.374,849.034 505.659,842.931 502.306,830.724L515.099,827.062C516.662,833.767 520.226,837.12 525.793,837.12C528.332,837.12 530.391,836.461 531.969,835.143C533.548,833.824 534.338,832.091 534.338,829.942C534.338,828.491 533.898,827.176 532.997,826.011C537.183,824.703 540.658,822.24 543.676,819.248C544.446,818.484 545.173,817.693 545.825,816.853ZM508.31,811.5L507.433,810.191C505.806,807.441 504.992,804.308 504.992,800.792C504.992,794.802 506.921,789.895 510.778,786.07C514.635,782.245 519.738,780.333 526.086,780.333C537.674,780.333 544.901,785.509 547.765,795.86L535.656,800.499C533.931,794.998 530.773,792.247 526.183,792.247C524.035,792.247 522.334,792.857 521.081,794.078C519.827,795.299 519.201,796.723 519.201,798.351C519.201,800.196 519.908,801.676 521.327,802.786C517.057,803.749 513.709,806.17 510.816,808.866C509.913,809.707 509.073,810.582 508.31,811.5Z"/>
                </g>
                <g transform="matrix(0.963674,-0.267081,0.267081,0.963674,-204.115,180.14)">
                    <text x="560.17px" y="840.435px" style="font-family:'FranklinGothic-DemiCond', 'Franklin Gothic Demi Cond', sans-serif;font-stretch:condensed;font-size:100px;">E</text>
                    <path d="M566.469,773.785L606.996,773.785L606.996,785.211L581.117,785.211L581.117,800.689L601.235,800.689L601.235,812.115L581.117,812.115L581.117,828.521L606.996,828.521L606.996,840.435L566.469,840.435L566.469,773.785Z"/>
                </g>
                <g transform="matrix(0.914524,-0.404532,0.404532,0.914524,-281.286,319.167)">
                    <text x="614.617px" y="825.203px" style="font-family:'FranklinGothic-DemiCond', 'Franklin Gothic Demi Cond', sans-serif;font-stretch:condensed;font-size:100px;">N</text>
                    <path d="M620.379,758.552L636.638,758.552L653.777,799.959L653.777,758.552L665.105,758.552L665.105,825.203L652.019,825.203L631.707,776.961L631.707,825.203L620.379,825.203L620.379,758.552Z"/>
                </g>
            </g>
            <g transform="matrix(1,0,0,1,88.6612,119.682)">
                <g transform="matrix(-0.208734,-0.977972,0.977972,-0.208734,-353.504,662.785)">
                    <text x="91.373px" y="474.401px" style="font-family:'FranklinGothic-DemiCond', 'Franklin Gothic Demi Cond', sans-serif;font-stretch:condensed;font-size:100px;">S</text>
                    <path d="M98.989,437.892L98.112,436.583C96.484,433.832 95.67,430.699 95.67,427.184C95.67,421.194 97.599,416.287 101.456,412.462C105.314,408.637 110.416,406.725 116.764,406.725C128.353,406.725 135.579,411.901 138.444,422.252L126.334,426.891C124.609,421.389 121.452,418.639 116.862,418.639C114.713,418.639 113.012,419.249 111.759,420.47C110.506,421.691 109.879,423.115 109.879,424.742C109.879,426.588 110.587,428.068 112.005,429.178C107.735,430.14 104.387,432.562 101.494,435.257C100.591,436.098 99.752,436.974 98.989,437.892ZM136.503,443.245L137.492,444.786C139.005,447.472 139.762,450.589 139.762,454.137C139.762,460.354 137.622,465.457 133.341,469.444C129.061,473.432 123.323,475.426 116.129,475.426C104.052,475.426 96.338,469.322 92.985,457.115L105.778,453.453C107.34,460.159 110.905,463.512 116.471,463.512C119.01,463.512 121.069,462.853 122.648,461.534C124.227,460.216 125.016,458.483 125.016,456.334C125.016,454.883 124.576,453.567 123.676,452.403C127.862,451.095 131.336,448.632 134.354,445.64C135.124,444.876 135.851,444.085 136.503,443.245Z"/>
                </g>
                <g transform="matrix(-0.0463449,-0.998925,0.998925,-0.0463449,-339.569,524.361)">
                    <text x="80.514px" y="424.271px" style="font-family:'FranklinGothic-DemiCond', 'Franklin Gothic Demi Cond', sans-serif;font-stretch:condensed;font-size:100px;">P</text>
                    <path d="M86.813,357.62L106.003,357.62C111.83,357.62 116.346,358.108 119.553,359.085C122.759,360.062 125.453,362.267 127.634,365.701C129.815,369.135 130.905,373.392 130.905,378.47C130.905,383.353 130.026,387.389 128.268,390.579C126.511,393.769 124.077,396.072 120.969,397.488C117.86,398.904 113.083,399.612 106.638,399.612L101.462,399.612L101.462,424.271L86.813,424.271L86.813,357.62ZM93.834,397.322L100.211,390.945L94.138,384.872L88.22,390.79C89.879,393.395 91.772,395.545 93.834,397.322ZM101.462,368.411L101.462,388.187L106.003,388.187C110.007,388.187 112.586,387.257 113.742,385.396C114.898,383.536 115.475,381.122 115.475,378.152C115.475,375.639 115.028,373.608 114.133,372.058C113.237,370.508 112.196,369.512 111.008,369.072C109.819,368.631 108.151,368.411 106.003,368.411L101.462,368.411Z"/>
                </g>
                <g transform="matrix(0.0905474,-0.995892,0.995892,0.0905474,-302.293,418.436)">
                    <text x="77.957px" y="374.731px" style="font-family:'FranklinGothic-DemiCond', 'Franklin Gothic Demi Cond', sans-serif;font-stretch:condensed;font-size:100px;">A</text>
                    <path d="M96.023,308.08L110.769,308.08L129.812,374.731L114.831,374.731L111.506,360.961L92.732,360.961L89.463,374.731L76.004,374.731L96.023,308.08ZM108.75,349.535L102.014,322.229L95.553,349.535L108.75,349.535Z"/>
                </g>
                <g transform="matrix(0.248652,-0.968593,0.968593,0.248652,-252.694,323.652)">
                    <text x="82.269px" y="324.705px" style="font-family:'FranklinGothic-DemiCond', 'Franklin Gothic Demi Cond', sans-serif;font-stretch:condensed;font-size:100px;">C</text>
                    <path d="M123.112,300.568L134.515,301.268C134.027,308.494 131.732,314.378 127.631,318.919C123.529,323.46 118.109,325.731 111.371,325.731C103.168,325.731 96.918,322.687 92.621,316.6C88.324,310.512 86.175,302.13 86.175,291.453C86.175,280.678 88.308,272.247 92.572,266.16C96.836,260.073 103.168,257.029 111.566,257.029C125.466,257.029 133.034,265.623 134.271,282.811L124.991,283.488C123.662,282.469 122.233,281.603 120.689,280.922C119.877,272.936 116.849,268.943 111.615,268.943C108.555,268.943 106.122,270.538 104.315,273.729C103.41,275.326 102.732,277.675 102.281,280.774C98.708,282.264 95.641,284.631 92.958,287.601C91.754,288.934 90.618,290.373 89.733,292C91.615,294.677 94.402,296.385 96.512,298.028C98.209,299.348 100.048,300.58 102.091,301.542C102.486,304.913 103.158,307.466 104.095,309.202C105.756,312.278 108.246,313.816 111.566,313.816C116.621,313.816 119.706,309.818 120.789,301.816C121.596,301.449 122.37,301.032 123.112,300.568Z"/>
                </g>
                <g transform="matrix(0.400333,-0.91637,0.91637,0.400333,-191.592,250.825)">
                    <text x="95.851px" y="271.801px" style="font-family:'FranklinGothic-DemiCond', 'Franklin Gothic Demi Cond', sans-serif;font-stretch:condensed;font-size:100px;">E</text>
                    <path d="M102.15,205.151L142.677,205.151L142.677,216.576L116.798,216.576L116.798,232.055L136.915,232.055L136.915,243.481L116.798,243.481L116.798,259.887L142.677,259.887L142.677,271.801L102.15,271.801L102.15,205.151Z"/>
                </g>
                <g transform="matrix(0.526503,-0.850173,0.850173,0.526503,-139.331,205.382)">
                    <text x="114.718px" y="227.776px" style="font-family:'FranklinGothic-DemiCond', 'Franklin Gothic Demi Cond', sans-serif;font-stretch:condensed;font-size:100px;">F</text>
                    <path d="M121.017,161.126L160.568,161.126L160.568,172.552L135.666,172.552L135.666,189.983L154.855,189.983L154.855,201.409L135.666,201.409L135.666,227.776L121.017,227.776L121.017,161.126Z"/>
                </g>
                <g transform="matrix(0.630225,-0.776413,0.776413,0.630225,-96.5264,177.144)">
                    <text x="137.711px" y="189.91px" style="font-family:'FranklinGothic-DemiCond', 'Franklin Gothic Demi Cond', sans-serif;font-stretch:condensed;font-size:100px;">L</text>
                    <path d="M144.01,123.259L158.658,123.259L158.658,177.41L180.142,177.41L180.142,189.91L144.01,189.91L144.01,123.259Z"/>
                </g>
                <g transform="matrix(0.701293,-0.712873,0.712873,0.701293,-62.6339,164.342)">
                    <text x="164.787px" y="156.91px" style="font-family:'FranklinGothic-DemiCond', 'Franklin Gothic Demi Cond', sans-serif;font-stretch:condensed;font-size:100px;">I</text>
                    <path d="M171.085,90.259L185.734,90.259L185.734,156.91L171.085,156.91L171.085,90.259ZM178.41,117.511L172.336,123.585L178.41,129.658L184.483,123.585L178.41,117.511Z"/>
                </g>
                <g transform="matrix(0.78481,-0.619736,0.619736,0.78481,-45.3562,143.013)">
                    <text x="183.257px" y="136.818px" style="font-family:'FranklinGothic-DemiCond', 'Franklin Gothic Demi Cond', sans-serif;font-stretch:condensed;font-size:100px;">G</text>
                    <path d="M231.483,101.271L236.089,101.271L236.089,136.818L229.888,136.818L227.983,129.201C224.403,134.963 219.032,137.844 211.87,137.844C204.286,137.844 198.272,134.857 193.828,128.884C189.385,122.91 187.163,114.878 187.163,104.787C187.163,93.817 189.352,85.134 193.73,78.737C198.109,72.341 204.578,69.142 213.14,69.142C226.779,69.142 234.429,76.76 236.089,91.994L222.905,94.142C221.994,85.418 218.836,81.057 213.433,81.057C210.145,81.057 207.516,82.668 205.547,85.89C203.577,89.113 202.593,95.217 202.593,104.201C202.593,112.176 203.553,117.792 205.474,121.047C207.394,124.302 210.21,125.93 213.921,125.93C219.649,125.93 222.638,121.851 222.88,113.694C226.673,111.831 229.741,108.846 232.286,105.128C232.486,104.836 232.714,104.428 232.937,103.988C232.497,103.022 231.972,101.97 231.483,101.271ZM224.913,101.271L213.487,112.697L212.944,112.697L212.944,101.271L224.913,101.271Z"/>
                </g>
                <g transform="matrix(0.881128,-0.472878,0.472878,0.881128,-20.4655,120.246)">
                    <text x="228.939px" y="100.829px" style="font-family:'FranklinGothic-DemiCond', 'Franklin Gothic Demi Cond', sans-serif;font-stretch:condensed;font-size:100px;">H</text>
                    <path d="M235.238,34.179L249.886,34.179L249.886,61.083L265.902,61.083L265.902,34.179L280.551,34.179L280.551,100.829L265.902,100.829L265.902,73.583L249.886,73.583L249.886,100.829L235.238,100.829L235.238,34.179Z"/>
                </g>
                <g transform="matrix(0.940786,-0.339002,0.339002,0.940786,-8.50428,99.4042)">
                    <text x="280.293px" y="74.046px" style="font-family:'FranklinGothic-DemiCond', 'Franklin Gothic Demi Cond', sans-serif;font-stretch:condensed;font-size:100px;">T</text>
                    <path d="M279.121,7.395L320.673,7.395L320.673,19.895L307.05,19.895L307.05,74.046L292.402,74.046L292.402,19.895L279.121,19.895L279.121,7.395Z"/>
                </g>
                <g transform="matrix(0.727336,0.686282,-0.686282,0.727336,249.496,-391.801)">
                    <text x="617.819px" y="118.084px" style="font-family:'FranklinGothic-DemiCond', 'Franklin Gothic Demi Cond', sans-serif;font-stretch:condensed;font-size:100px;">R</text>
                    <path d="M624.118,51.434L645.066,51.434C649.135,51.434 652.251,51.621 654.416,51.995C656.581,52.369 658.77,53.379 660.983,55.022C663.197,56.666 664.93,58.912 666.184,61.761C667.437,64.609 668.064,67.807 668.064,71.355C668.064,79.689 664.939,85.548 658.689,88.934L670.944,118.084L655.001,118.084L646.086,91.717L638.767,91.717L638.767,118.084L624.118,118.084L624.118,51.434ZM638.767,62.225L638.767,80.926L645.212,80.926C650.941,80.926 653.806,77.719 653.806,71.307C653.806,69.093 653.383,67.278 652.536,65.862C651.69,64.446 650.705,63.486 649.582,62.981C648.459,62.477 646.807,62.225 644.626,62.225L638.767,62.225Z"/>
                </g>
                <g transform="matrix(0.610905,0.791704,-0.791704,0.610905,378.729,-460.201)">
                    <text x="657.558px" y="155.205px" style="font-family:'FranklinGothic-DemiCond', 'Franklin Gothic Demi Cond', sans-serif;font-stretch:condensed;font-size:100px;">O</text>
                    <path d="M709.853,121.856C709.853,144.772 701.796,156.231 685.683,156.231C677.675,156.231 671.636,153.309 667.567,147.466C663.498,141.623 661.464,133.086 661.464,121.856C661.464,98.972 669.521,87.53 685.634,87.53C693.511,87.53 699.517,90.394 703.651,96.123C707.786,101.852 709.853,110.43 709.853,121.856ZM693.926,110.925C693.582,107.787 693.046,105.449 692.323,103.911C690.924,100.933 688.694,99.444 685.634,99.444C682.606,99.444 680.393,100.941 678.993,103.936C678.253,105.519 677.709,107.933 677.368,111.181C674.154,112.491 671.428,114.528 669.004,116.826C667.807,117.961 666.296,120.264 665.071,122.309L665.763,123.463C668.851,127.743 672.628,131.07 677.405,132.829C677.75,135.835 678.271,138.119 678.969,139.678C680.352,142.77 682.574,144.317 685.634,144.317C688.661,144.317 690.883,142.836 692.299,139.873C693.051,138.3 693.603,135.868 693.947,132.577C697.152,131.27 699.871,129.239 702.288,126.95C703.503,125.8 705.037,123.455 706.273,121.389L705.909,120.766C702.778,116.27 698.907,112.752 693.926,110.925Z"/>
                </g>
                <g transform="matrix(0.469536,0.882913,-0.882913,0.469536,543.406,-504.952)">
                    <text x="691.929px" y="199.751px" style="font-family:'FranklinGothic-DemiCond', 'Franklin Gothic Demi Cond', sans-serif;font-stretch:condensed;font-size:100px;">C</text>
                    <path d="M732.772,175.614L744.175,176.314C743.687,183.54 741.392,189.424 737.29,193.965C733.189,198.506 727.769,200.777 721.031,200.777C712.827,200.777 706.577,197.733 702.281,191.646C697.984,185.559 695.835,177.176 695.835,166.499C695.835,155.725 697.967,147.294 702.232,141.206C706.496,135.119 712.827,132.076 721.226,132.076C735.126,132.076 742.694,140.669 743.931,157.857L734.651,158.534C733.322,157.515 731.893,156.649 730.349,155.968C729.537,147.982 726.509,143.99 721.275,143.99C718.215,143.99 715.782,145.585 713.975,148.775C713.07,150.372 712.392,152.721 711.941,155.821C708.368,157.31 705.301,159.677 702.617,162.648C701.414,163.98 700.278,165.419 699.393,167.046C701.274,169.723 704.061,171.431 706.172,173.074C707.869,174.394 709.707,175.626 711.751,176.588C712.146,179.959 712.818,182.512 713.755,184.248C715.415,187.325 717.906,188.863 721.226,188.863C726.281,188.863 729.366,184.864 730.449,176.863C731.256,176.495 732.03,176.078 732.772,175.614Z"/>
                </g>
                <g transform="matrix(0.313092,0.949723,-0.949723,0.313092,728.569,-511.468)">
                    <text x="717.864px" y="247.928px" style="font-family:'FranklinGothic-DemiCond', 'Franklin Gothic Demi Cond', sans-serif;font-stretch:condensed;font-size:100px;">K</text>
                    <path d="M724.163,181.277L738.811,181.277L738.811,209.083L755.002,181.277L769.817,181.277L753.081,205.789L771.233,247.928L756.08,247.928L744.352,217.243L738.811,225.271L738.811,247.928L724.163,247.928L724.163,181.277Z"/>
                </g>
                <g transform="matrix(0.167524,0.985868,-0.985868,0.167524,905.515,-476.121)">
                    <text x="734.683px" y="298.122px" style="font-family:'FranklinGothic-DemiCond', 'Franklin Gothic Demi Cond', sans-serif;font-stretch:condensed;font-size:100px;">E</text>
                    <path d="M740.982,231.471L781.509,231.471L781.509,242.897L755.63,242.897L755.63,258.376L775.747,258.376L775.747,269.802L755.63,269.802L755.63,286.208L781.509,286.208L781.509,298.122L740.982,298.122L740.982,231.471Z"/>
                </g>
                <g transform="matrix(0.0459493,0.998944,-0.998944,0.0459493,1053.32,-412.433)">
                    <text x="742.582px" y="345.228px" style="font-family:'FranklinGothic-DemiCond', 'Franklin Gothic Demi Cond', sans-serif;font-stretch:condensed;font-size:100px;">T</text>
                    <path d="M741.41,278.578L782.963,278.578L782.963,291.078L769.34,291.078L769.34,345.228L754.691,345.228L754.691,291.078L741.41,291.078L741.41,278.578Z"/>
                </g>
                <g transform="matrix(-0.100379,0.994949,-0.994949,-0.100379,1202.45,-318.304)">
                    <text x="745.13px" y="384.47px" style="font-family:'FranklinGothic-DemiCond', 'Franklin Gothic Demi Cond', sans-serif;font-stretch:condensed;font-size:100px;">R</text>
                    <path d="M751.429,317.82L772.376,317.82C776.445,317.82 779.562,318.007 781.726,318.381C783.891,318.755 786.08,319.765 788.294,321.408C790.507,323.052 792.241,325.298 793.494,328.147C794.747,330.995 795.374,334.193 795.374,337.741C795.374,346.075 792.249,351.934 785.999,355.32L798.255,384.47L782.311,384.47L773.396,358.103L766.077,358.103L766.077,384.47L751.429,384.47L751.429,317.82ZM766.077,328.611L766.077,347.312L772.522,347.312C778.252,347.312 781.116,344.105 781.116,337.693C781.116,335.479 780.693,333.664 779.847,332.248C779,330.832 778.016,329.872 776.892,329.367C775.769,328.863 774.117,328.611 771.936,328.611L766.077,328.611Z"/>
                </g>
                <g transform="matrix(-0.239577,0.970877,-0.970877,-0.239577,1342.52,-174.196)">
                    <text x="739.48px" y="438.656px" style="font-family:'FranklinGothic-DemiCond', 'Franklin Gothic Demi Cond', sans-serif;font-stretch:condensed;font-size:100px;">Y</text>
                    <path d="M736.648,372.006L752.783,372.006L762.187,396.301L772.246,372.006L786.55,372.006L768.044,410.483L768.044,438.656L753.396,438.656L753.396,410.483L736.648,372.006Z"/>
                </g>
            </g>
        </g>
        <g id="Sterne" transform="matrix(6,0,0,6,0,-240)">
            <g transform="matrix(0.195901,-0.00942244,0.00890721,0.185189,529.758,501.261)">
                <path d="M390.3,328.408C353.884,355.804 322.482,354.873 296.126,328.408C318.292,364.304 317.547,397.199 296.126,427.387C320.424,395.954 351.767,395.738 390.3,427.387C359.757,393.088 358.91,360.058 390.3,328.408Z"/>
            </g>
            <g transform="matrix(0.0971534,0.0209413,-0.0207494,0.0962629,612.462,614.643)">
                <path d="M390.3,328.408C353.884,355.804 322.482,354.873 296.126,328.408C318.292,364.304 317.547,397.199 296.126,427.387C320.424,395.954 351.767,395.738 390.3,427.387C359.757,393.088 358.91,360.058 390.3,328.408Z"/>
            </g>
            <g transform="matrix(0.113253,-0.0292058,0.0272241,0.105569,668.279,515.16)">
                <path d="M390.3,328.408C353.884,355.804 322.482,354.873 296.126,328.408C318.292,364.304 317.547,397.199 296.126,427.387C320.424,395.954 351.767,395.738 390.3,427.387C359.757,393.088 358.91,360.058 390.3,328.408Z"/>
            </g>
            <g transform="matrix(0.20074,0.139817,-0.137185,0.19696,684.813,492.539)">
                <path d="M390.3,328.408C353.884,355.804 322.482,354.873 296.126,328.408C318.292,364.304 317.547,397.199 296.126,427.387C320.424,395.954 351.767,395.738 390.3,427.387C359.757,393.088 358.91,360.058 390.3,328.408Z"/>
            </g>
            <g transform="matrix(0.126306,0.209505,-0.20556,0.123928,395.521,479.633)">
                <path d="M390.3,328.408C353.884,355.804 322.482,354.873 296.126,328.408C318.292,364.304 317.547,397.199 296.126,427.387C320.424,395.954 351.767,395.738 390.3,427.387C359.757,393.088 358.91,360.058 390.3,328.408Z"/>
            </g>
            <g transform="matrix(0.182314,0.0714936,-0.0693385,0.176819,361.312,186.37)">
                <path d="M390.3,328.408C353.884,355.804 322.482,354.873 296.126,328.408C318.292,364.304 317.547,397.199 296.126,427.387C320.424,395.954 351.767,395.738 390.3,427.387C359.757,393.088 358.91,360.058 390.3,328.408Z"/>
            </g>
            <g transform="matrix(0.159318,0.264261,-0.250996,0.151321,623.652,118.567)">
                <path d="M390.3,328.408C353.884,355.804 322.482,354.873 296.126,328.408C318.292,364.304 317.547,397.199 296.126,427.387C320.424,395.954 351.767,395.738 390.3,427.387C359.757,393.088 358.91,360.058 390.3,328.408Z"/>
            </g>
            <g transform="matrix(-0.0299536,0.0904798,-0.0850704,-0.0281628,442.724,646.347)">
                <path d="M390.3,328.408C353.884,355.804 322.482,354.873 296.126,328.408C322.924,363.607 321.873,396.548 296.126,427.387C327.527,398.308 357.961,397.791 390.3,427.387C359.757,393.088 358.91,360.058 390.3,328.408Z"/>
            </g>
            <g transform="matrix(-0.0548989,0.0914108,-0.0854864,-0.0513409,307.949,604.39)">
                <path d="M390.3,328.408C353.884,355.804 322.482,354.873 296.126,328.408C322.924,363.607 321.873,396.548 296.126,427.387C327.527,398.308 357.961,397.791 390.3,427.387C359.757,393.088 358.91,360.058 390.3,328.408Z"/>
            </g>
            <g transform="matrix(-0.0907921,0.151176,-0.142518,-0.0855927,369.835,517.177)">
                <path d="M390.3,328.408C353.884,355.804 322.482,354.873 296.126,328.408C322.924,363.607 321.873,396.548 296.126,427.387C327.527,398.308 357.961,397.791 390.3,427.387C359.757,393.088 358.91,360.058 390.3,328.408Z"/>
            </g>
        </g>
    </g>
    <g id="Drache-Links-oben" serif:id="Drache Links oben" transform="matrix(1.05288,0,0,1.05288,52.1929,163.057)">
        <g id="Ränder1" serif:id="Ränder">
            <g transform="matrix(1,0,0,1,-200,-296)">
                <path d="M2847.99,1864.09C2809.79,1872.7 2775.13,1887.61 2743.71,1910.72C2688.71,1951.19 2643.24,2017.36 2607.67,2122.15C2607.48,2122.7 2607.31,2123.26 2607.16,2123.83L2470.36,2648.29C2436.39,2713.79 2418.12,2808.9 2430.54,2957.2C2431.57,2969.5 2441.64,2979.08 2453.97,2979.49C2455.93,2979.55 2457.85,2979.38 2459.7,2979C2462.18,3033.74 2471.43,3086.24 2486.86,3136.66C2490.39,3148.2 2501.84,3155.41 2513.76,3153.6C2525.69,3151.8 2534.5,3141.53 2534.46,3129.47C2534.34,3089.8 2534.97,3053.71 2538.94,3030.38C2539.38,3027.77 2540.13,3024.81 2540.84,3022.3L2805.97,3016.92C2813.01,3016.78 2819.64,3013.59 2824.16,3008.19C2828.67,3002.78 2830.62,2995.69 2829.5,2988.74C2812.23,2881.14 2824.6,2779.01 2870.77,2694.76C2870.77,2694.76 2905.45,2642.94 2905.45,2642.94C2966.55,2575.85 3010.1,2481.24 3018.99,2408.09C3033.32,2290.28 2998.49,2234.16 2977.83,2192.84C2971.15,2179.5 2965.09,2168.95 2968.24,2156.58C2971.97,2141.86 2986.01,2126.64 3013.7,2104.06C3017.56,2100.91 3023.54,2099.47 3030.15,2098.47C3044.04,2096.36 3060.63,2097.64 3075.04,2102.02C3086.4,2105.48 3097.37,2109.6 3100.17,2118.43C3101.15,2121.52 3100.1,2124.97 3098.11,2129.01C3093.9,2137.58 3085.71,2146.85 3073.21,2157.37C3065.23,2164.09 3062.41,2175.14 3066.22,2184.85C3070.02,2194.57 3079.59,2200.78 3090.01,2200.29C3127.62,2198.54 3178.88,2191.14 3206.22,2200.25C3224.07,2206.2 3239.08,2221.74 3241.26,2238.04C3242.5,2247.31 3248.93,2255.05 3257.82,2257.95C3266.7,2260.85 3276.47,2258.41 3282.94,2251.66C3291.06,2243.2 3314.31,2228.95 3319.88,2225.6C3323.81,2226.14 3327.87,2225.7 3331.67,2224.28C3338.55,2221.7 3343.89,2216.15 3346.22,2209.19C3348.1,2203.53 3356.92,2179.2 3357.97,2158.8C3358.66,2145.28 3355.88,2133.1 3350.13,2124.5C3345.06,2116.92 3336.17,2112.81 3327.11,2113.86C3319.36,2114.75 3312.6,2119.29 3308.81,2125.93C3307.93,2121.72 3306.82,2117.51 3305.47,2113.3C3302.23,2103.18 3292.8,2096.34 3282.18,2096.39C3271.56,2096.45 3262.2,2103.38 3259.06,2113.53C3257.8,2117.57 3255.11,2122.55 3253.85,2124.75L3253.23,2124.54C3210.62,2090.32 3202.43,2055.98 3192.23,2028.15C3187.86,2016.24 3183.14,2005.27 3176.79,1995.34C3191.39,1993.68 3206.75,1995.09 3222.25,1997.74C3255.2,2003.39 3288.82,2015.1 3319.32,2022.77C3351.92,2030.97 3381.4,2033.65 3405.38,2026.05C3406.69,2032.74 3410.8,2038.75 3416.96,2042.35C3426.28,2047.8 3438.08,2046.46 3445.94,2039.06L3449.06,2036.02C3449.35,2044.89 3454.48,2052.98 3462.54,2056.98C3471.29,2061.32 3481.79,2060.01 3489.21,2053.66C3510.37,2035.51 3525.56,2006.18 3522.31,1943.28C3521.96,1936.57 3518.86,1930.31 3513.73,1925.97C3508.61,1921.62 3501.91,1919.6 3495.24,1920.36C3491.84,1920.75 3490.36,1917.45 3488.34,1914.08C3481.88,1903.27 3477.81,1887.08 3474.61,1867.37C3472.89,1856.79 3464.45,1848.58 3453.82,1847.15C3443.2,1845.73 3432.89,1851.43 3428.45,1861.18C3413.38,1894.27 3381.15,1897.8 3325.07,1873.05C3285.04,1810.7 3227.24,1795.39 3161.63,1780.93C3104.57,1768.37 3040.99,1755.85 2982.56,1696.04C2982.54,1696.02 2969.09,1681.31 2969.09,1681.31C2960.12,1671.5 2944.94,1670.7 2934.99,1679.52C2925.04,1688.33 2924.01,1703.5 2932.68,1713.59C2937.48,1719.17 2942.32,1724.46 2947.17,1729.45C2947.15,1729.43 2997.56,1784.57 2997.56,1784.57C2982.55,1787.48 2968.6,1792.73 2955.2,1798.11C2939.93,1804.24 2926.08,1811.64 2911.08,1808.47C2895.67,1805.2 2881.15,1790.8 2862.1,1759.83C2855.9,1749.75 2843.35,1745.59 2832.36,1749.98C2821.37,1754.36 2815.12,1766.02 2817.56,1777.6C2824.11,1808.67 2830.07,1840.51 2847.99,1864.09ZM2493.2,2657.13C2459.89,2719.85 2442.75,2811.46 2454.78,2955.17C2461.33,2911.95 2462.05,2854.84 2489.55,2857.39C2476.51,2954.74 2484.3,3045.15 2510.13,3129.55C2509.92,3060.64 2512.32,3002.16 2528.35,2998.21L2805.48,2992.59C2787.22,2878.86 2800.9,2771.02 2849.96,2682.1L2886.25,2627.87C2944.52,2564.52 2986.39,2474.64 2994.84,2405.15C3021.65,2184.62 2863.46,2195.19 2998.32,2085.21C3038.28,2052.61 3194.31,2087.24 3088.88,2175.99C3129.35,2174.1 3184.5,2167.36 3213.91,2177.16C3240.68,2186.09 3262.11,2210.37 3265.38,2234.82C3280.21,2219.36 3313.66,2195.92 3323.13,2201.49C3325.49,2194.43 3340.74,2154.23 3329.91,2138.03C3319.47,2165.82 3305.3,2178.12 3286.03,2169.24C3288.32,2153.07 3287.48,2136.9 3282.3,2120.73C3274.53,2145.79 3261.3,2155.87 3240.63,2145.6C3157.66,2080.9 3185.5,2016.58 3131.66,1984.91C3225.87,1929.7 3371.24,2054.73 3423.17,1984.91C3432.41,1990.99 3433.59,2003.85 3429.25,2021.35C3444.04,2007.41 3452.98,1991.91 3459.61,1975.8C3470.22,1984.61 3475.26,2003.56 3473.37,2035.18C3490.61,2020.39 3500.66,1995.81 3498.01,1944.54C3472.16,1947.49 3458.19,1918.07 3450.59,1871.27C3430.18,1916.08 3386.7,1928.6 3308.25,1892.14C3235.97,1769.64 3090.06,1841.26 2964.85,1712.73L2951.13,1697.73C2955.68,1703.02 2960.26,1708.02 2964.85,1712.73L3057.73,1814.33C2963.68,1775.34 2922.34,1904.2 2841.37,1772.58C2852.13,1823.61 2856.77,1878.72 2943.86,1878.86C2799.09,1878.71 2697.74,1932.54 2630.71,2129.97L2493.2,2657.13Z" style="fill:white;"/>
            </g>
            <g transform="matrix(0.967883,0,0,1,-115.511,-296)">
                <path d="M1334.65,2357.82C1335.18,2358.62 1335.99,2359.96 1336.43,2360.98C1337.34,2363.1 1338.09,2365.48 1338.75,2368.12C1343.31,2386.3 1343.37,2413.18 1341.56,2446.69C1332.28,2619.08 1269.9,2951.08 1360.03,3214.96C1363.89,3226.27 1375.65,3233.21 1387.81,3231.36C1399.96,3229.51 1408.95,3219.41 1409.04,3207.5C1412.35,2757.41 1708.85,2548.07 1859.27,2474.01C1859.08,2510 1860.76,2568.75 1869.66,2646.06C1870.86,2656.49 1878.84,2665 1889.45,2667.17C1900.06,2669.34 1910.91,2664.68 1916.37,2655.61C1954.98,2591.45 1994.03,2539.15 2035.15,2508.45C2046.03,2512.11 2054.05,2515.09 2060.05,2517.75C2064.34,2519.65 2067.01,2520.76 2068.6,2522.44C2071.53,2525.5 2071.98,2529.11 2074.75,2534.05C2079.81,2543.11 2088.13,2555.51 2107.8,2573.9C2155,2618.01 2157.77,2673.91 2167.55,2737.31C2178.79,2810.09 2196.27,2892.1 2274.01,2980.22C2280.88,2988.01 2292.04,2990.8 2301.94,2987.22C2311.84,2983.63 2318.37,2974.43 2318.27,2964.2C2317.4,2872.86 2325.32,2791.67 2348.39,2727C2393.04,2721.44 2441.5,2702.83 2489.36,2681.3C2490.75,2681.42 2492.16,2681.48 2493.57,2681.46C2504.95,2681.29 2514.79,2673.76 2517.57,2663.08L2655.09,2135.93C2657.33,2127.33 2654.56,2118.24 2647.87,2112.19C2498.43,1977.16 2455.55,1877.57 2450.05,1740.35C2449.66,1730.45 2443.1,1721.77 2433.48,1718.4C2423.85,1715.04 2413.08,1717.65 2406.24,1725.02C2371.81,1762.09 2329.04,1769.25 2281.01,1762.45C2226.03,1754.68 2164.8,1729.62 2100.01,1704.17C2075.71,1694.62 2046.91,1698.26 2018.38,1702.79C1993.43,1706.75 1967.63,1713.99 1952.91,1686.38C1948.08,1677.3 1937.89,1672.11 1927.42,1673.39C1916.96,1674.67 1908.42,1682.14 1906.07,1692.1C1896.24,1733.6 1869.43,1745.68 1838.64,1758.41C1797.07,1775.6 1749.19,1793 1708.65,1847.11C1665.9,1904.18 1631.72,1974 1590.78,2044.52C1532.4,2145.06 1459.75,2247.41 1321.93,2311.63C1311,2316.72 1305.38,2328.65 1308.59,2339.98C1311.76,2351.2 1322.69,2358.66 1334.65,2357.82ZM2630.71,2129.97C2474.66,1988.97 2430.67,1884.58 2424.93,1741.29C2343.61,1828.85 2224.22,1779.23 2090.55,1726.72C2039.88,1706.81 1965.66,1763.35 1930.57,1697.53C1906.27,1800.19 1803.26,1762.27 1729,1861.4C1623.44,2002.31 1571.53,2222.34 1332.84,2333.55C1439.08,2324.7 1256.64,2834.73 1383.9,3207.32C1387.61,2702.51 1749.97,2492.06 1885.62,2435.06C1885.62,2435.06 1879.49,2511.7 1894.64,2643.37C1938.61,2570.31 1983.73,2512.32 2030.94,2481.37C2119.18,2509.81 2069.23,2504.03 2125.26,2556.4C2228.11,2652.51 2145.55,2797.12 2293.13,2964.42C2292.16,2862.82 2302.13,2773.38 2330.31,2704.16C2378.99,2701.85 2433.28,2680.04 2486.62,2655.66C2488.74,2656.62 2490.93,2657.16 2493.2,2657.13L2630.71,2129.97Z" style="fill:white;"/>
            </g>
        </g>
        <g transform="matrix(1.13387,0,0,1,-325.411,0)">
            <g transform="matrix(0.853607,0,0,1,185.118,-296)">
                <path d="M2630.71,2129.97C2474.66,1988.97 2430.67,1884.58 2424.93,1741.29C2343.61,1828.85 2224.22,1779.23 2090.55,1726.72C2039.88,1706.81 1965.66,1763.35 1930.57,1697.53C1906.27,1800.19 1803.26,1762.27 1729,1861.4C1623.44,2002.31 1571.53,2222.34 1332.84,2333.55C1439.08,2324.7 1256.64,2834.73 1383.9,3207.32C1387.61,2702.51 1749.97,2492.06 1885.62,2435.06C1885.62,2435.06 1879.49,2511.7 1894.64,2643.37C1938.61,2570.31 1983.73,2512.32 2030.94,2481.37C2119.18,2509.81 2069.23,2504.03 2125.26,2556.4C2228.11,2652.51 2145.55,2797.12 2293.13,2964.42C2292.16,2862.82 2302.13,2773.38 2330.31,2704.16C2378.99,2701.85 2433.28,2680.04 2486.62,2655.66C2488.74,2656.62 2490.93,2657.16 2493.2,2657.13L2630.71,2129.97Z" style="fill:rgb(156,16,3);"/>
            </g>
            <g transform="matrix(0.881932,0,0,1,110.604,-296)">
                <path d="M2493.2,2657.13C2459.89,2719.85 2442.75,2811.46 2454.78,2955.17C2461.33,2911.95 2462.05,2854.84 2489.55,2857.39C2476.51,2954.74 2484.3,3045.15 2510.13,3129.55C2509.92,3060.64 2512.32,3002.16 2528.35,2998.21L2805.48,2992.59C2787.22,2878.86 2800.9,2771.02 2849.96,2682.1L2886.25,2627.87C2944.52,2564.52 2986.39,2474.64 2994.84,2405.15C3021.65,2184.62 2863.46,2195.19 2998.32,2085.21C3038.28,2052.61 3194.31,2087.24 3088.88,2175.99C3129.35,2174.1 3184.5,2167.36 3213.91,2177.16C3240.68,2186.09 3262.11,2210.37 3265.38,2234.82C3280.21,2219.36 3313.66,2195.92 3323.13,2201.49C3325.49,2194.43 3340.74,2154.23 3329.91,2138.03C3319.47,2165.82 3305.3,2178.12 3286.03,2169.24C3288.32,2153.07 3287.48,2136.9 3282.3,2120.73C3274.53,2145.79 3261.3,2155.87 3240.63,2145.6C3157.66,2080.9 3185.5,2016.58 3131.66,1984.91C3225.87,1929.7 3371.24,2054.73 3423.17,1984.91C3432.41,1990.99 3433.59,2003.85 3429.25,2021.35C3444.04,2007.41 3452.98,1991.91 3459.61,1975.8C3470.22,1984.61 3475.26,2003.56 3473.37,2035.18C3490.61,2020.39 3500.66,1995.81 3498.01,1944.54C3472.16,1947.49 3458.19,1918.07 3450.59,1871.27C3430.18,1916.08 3386.7,1928.6 3308.25,1892.14C3235.97,1769.64 3090.06,1841.26 2964.85,1712.73L2951.13,1697.73C2955.68,1703.02 2960.26,1708.02 2964.85,1712.73L3057.73,1814.33C2963.68,1775.34 2922.34,1904.2 2841.37,1772.58C2852.13,1823.61 2856.77,1878.72 2943.86,1878.86C2799.09,1878.71 2697.74,1932.54 2630.71,2129.97L2493.2,2657.13Z" style="fill:rgb(156,16,3);"/>
            </g>
        </g>
        <g id="Flügellinien" transform="matrix(0.967883,0,0,1,-9.04334,-296)">
            <path d="M2183.13,2964.42C2032.83,2570.17 2212.7,2248.13 2487.48,2091.61" style="fill:none;stroke:white;stroke-width:24.66px;"/>
            <path d="M2456.33,2053.02C2049.04,2018.84 1886.48,2262.66 1781.95,2651.05" style="fill:none;stroke:white;stroke-width:24.66px;"/>
            <path d="M2405.32,1982.33C1852.59,1707.58 1217.04,2397.67 1271.83,3219.26" style="fill:none;stroke:white;stroke-width:24.66px;"/>
        </g>
        <g id="Zusatzelemente">
            <g transform="matrix(0.805793,0,0,0.804424,617.059,13.2855)">
                <path d="M3037.71,1962.42C2995.7,1958.46 3005.07,1914.48 2953.17,1924.12C2960.04,1964.08 2981.08,1971.86 3037.71,1962.42Z" style="fill:white;"/>
                <path d="M3037.71,1962.42C3016.7,1960.44 3008.55,1948.45 2999.15,1938.17C2989.75,1927.88 2979.12,1919.3 2953.17,1924.12C2960.04,1964.08 2981.08,1971.86 3037.71,1962.42ZM2994.47,1952.61C2989.31,1946.78 2984.97,1940.41 2976.98,1937.46C2974.82,1936.66 2972.42,1936.15 2969.68,1935.94C2971.55,1940.72 2974.03,1944.47 2977.56,1947.17C2981.83,1950.45 2987.42,1952 2994.47,1952.61Z" style="fill:white;"/>
            </g>
            <g id="Drache-links-unten" serif:id="Drache links unten" transform="matrix(1,0,0,1,-90,-296)">
                <path d="M2714.32,3076.09C2702.79,3036.29 2694.95,2996.8 2690.91,2958.17L2418.35,2998.21C2418.93,3039.69 2423.64,3085.09 2445.27,3146.56L2714.32,3076.09Z" style="fill:rgb(156,16,3);"/>
            </g>
        </g>
    </g>
</svg>
