<?xml version="1.0" encoding="UTF-8"?> <svg xmlns="http://www.w3.org/2000/svg" id="Layer_1" viewBox="0 0 288.12 156.05"><defs><style>.cls-1{fill:#fff;stroke-width:0px;}</style></defs><path id="TU_Wien_Space_Team" class="cls-1" d="m275.39,103.12l-12.96,21.55h-3.69l-3.4-21.55-4.76,21.55h-8.35l7.13-32.37h11.31l2.77,18.05,10.77-18.05h11.89l-7.13,32.37h-8.35l4.76-21.55Zm-44.31,16.65h-13.39l-2.77,4.9h-9.46l19.31-32.37h10.48l5.1,32.37h-8.64l-.63-4.9Zm-9.66-7.04h9.03l-1.6-13.39-7.43,13.39Zm-33.49-20.43h23.73l-1.55,7.04h-15.38l-1.17,5.39h15l-1.55,7.09h-15l-1.31,5.82h15.38l-1.55,7.04h-23.73l7.13-32.37Zm-22.52,7.28h-9.08l1.65-7.28h26.45l-1.6,7.28h-9.08l-5.48,25.09h-8.35l5.48-25.09Zm-35.11-26.06h23.73l-1.55,7.04h-15.38l-1.17,5.39h15l-1.55,7.09h-15l-1.31,5.82h15.38l-1.55,7.04h-23.73l7.13-32.37Zm-19.66-.53c8.74,0,13.3,4.9,15,9.95l-8.06,2.62c-.92-3.25-3.74-5.19-7.33-5.19-5.63,0-10.05,4.9-10.05,10.87,0,4.37,3.15,7.86,8.2,7.86,2.62,0,5.58-1.55,7.04-3.74l6.5,4.27c-3.88,5.29-9.71,6.84-14.03,6.84-9.12,0-16.4-5.68-16.4-14.7,0-11.31,8.74-18.78,19.12-18.78Zm-29.56,28h-13.39l-2.77,4.9h-9.46l19.32-32.37h10.48l5.1,32.37h-8.64l-.63-4.9Zm-9.66-7.04h9.03l-1.6-13.39-7.43,13.39Zm-32.61-20.43h15.14c6.21,0,10.05,4.17,10.05,9.27,0,4.76-3.15,12.38-13.88,12.38h-7.72l-2.38,10.72h-8.35l7.13-32.37Zm16.55,10.14c0-1.84-1.36-3.11-3.54-3.11h-6.21l-1.6,7.28h6.45c3.06,0,4.9-1.8,4.9-4.17Zm-48.39,10.77c2.33,2.96,6.7,4.9,11.02,4.9,2.77,0,3.83-1.41,3.83-2.67,0-1.55-2.04-2.43-4.85-3.4-4.51-1.55-10.63-3.74-10.63-10.05,0-4.61,4.51-10.19,13.1-10.19,5.24,0,10.29,1.89,13.54,5.34l-5,5.73c-2.38-2.72-6.45-4.03-9.51-4.03-2.23,0-3.49,1.17-3.49,2.48,0,1.41,2.09,2.28,4.8,3.25,4.61,1.5,10.77,3.88,10.77,9.75s-4.95,10.92-13.15,10.92c-6.6,0-12.42-2.47-15.43-6.16l5-5.87Zm182.36-43.15l-3.44,15.58h-2.91l4.28-19.42h3l7.19,15.23,3.38-15.23h2.91l-4.28,19.42h-2.82l-7.31-15.58Zm-20.21-3.84h13.04l-.58,2.56h-10.1l-1.25,5.68h9.9l-.58,2.56h-9.9l-1.34,6.06h10.1l-.52,2.56h-13.04l4.28-19.42Zm-23.41,4.43l-7.34,14.99h-3.12l-1.28-19.42h3.17l.58,15.58,7.69-15.58h2.36l.79,15.58,7.48-15.58h3.32l-9.81,19.42h-3.12l-.73-14.99Zm-43.65,8.79c0-.47.06-1.31.17-1.83l2.5-11.38h2.94l-2.47,11.3c-.15.67-.2,1.11-.2,1.66,0,2.5,1.69,4.25,4.72,4.25,3.49,0,5.1-2.13,5.82-5.44l2.59-11.76h2.94l-2.59,11.79c-1.05,4.78-3.32,7.98-8.91,7.98-4.78,0-7.51-2.59-7.51-6.55Zm-11.3-10.66h-6.03l.58-2.56h14.94l-.55,2.56h-6.03l-3.7,16.86h-2.91l3.7-16.86Zm49.56,104.05h.97l25.96-114.21-1.32-2.01-2.04,1.27-24.54,114.95h.97ZM172.66,22.43c3.42-14.08,1.19-20.43,1.19-20.43,0,0-4.69,4.83-7.5,19.04-5.7,6.1-6.29,14.77-6.29,14.77-.06.53.36,1.05.86.74l6.17-3.85,3.98,6.08c.32.49.92.2,1.09-.31,0,0,3.11-8.12.5-16.05Z"></path></svg> 